<svg height="512" viewBox="0 0 60 60" width="512" xmlns="http://www.w3.org/2000/svg"><g id="019---Campervan" fill="none"><g id="Icons" transform="translate(1)"><path id="Shape" d="m56 33v13h-54c0-13.041-.014-12.514.03-13h13.97c2.209139 0 4-1.790861 4-4v-6c0-2.209139-1.790861-4-4-4h-5l.6-.8c1.5117661-2.0133308 3.8822757-3.1985856 6.4-3.2h28c3.1456569-.0036407 6.1080406 1.4794049 7.99 4h-3.99c-2.209139 0-4 1.790861-4 4v6c0 2.209139 1.790861 4 4 4z" fill="#60a917"/><path id="Rectangle-path" d="m53 33h3v13h-3z" fill="#549414"/><path id="Shape" d="m53.99 19h-3c-1.8819594-2.5205951-4.8443431-4.0036407-7.99-4.0000067l3 .0000067c3.1456569-.0036407 6.1080406 1.4794049 7.99 4z" fill="#549414"/><g fill="#707070"><path id="Shape" d="m2 46h11.4c-1.5022084.8954617-2.6124457 2.3234197-3.11 4h-8.29c-1.1045695 0-2-.8954305-2-2s.8954305-2 2-2z"/><path id="Shape" d="m40.4 46c-1.4994954.8961511-2.6063346 2.3243307-3.1 4h-13.59c-.4975543-1.6765803-1.6077916-3.1045383-3.11-4z"/><path id="Shape" d="m58 48c-.0032948 1.1032019-.8967981 1.9967052-2 2h-5.29c-.4986811-1.6789124-1.6130242-3.1075575-3.12-4h8.41c1.1032019.0032948 1.9967052.8967981 2 2z"/></g><path id="Shape" d="m2 46h11.4c-1.5022084.8954617-2.6124457 2.3234197-3.11 4h-8.29c-1.1045695 0-2-.8954305-2-2s.8954305-2 2-2z" fill="#9e9e9e"/><path id="Shape" d="m40.4 46c-1.4994954.8961511-2.6063346 2.3243307-3.1 4h-13.59c-.4975543-1.6765803-1.6077916-3.1045383-3.11-4z" fill="#9e9e9e"/><path id="Shape" d="m55 48c-.0032948 1.1032019-.8967981 1.9967052-2 2h-2.29c-.4986811-1.6789124-1.6130242-3.1075575-3.12-4h5.41c1.1032019.0032948 1.9967052.8967981 2 2z" fill="#9e9e9e"/><circle id="Oval" cx="17" cy="52" fill="#3f51b5" r="7"/><path id="Shape" d="m51 52c-.0013648 3.6703059-2.8373918 6.716314-6.4982574 6.9793921-3.6608657.2630782-6.9032886-2.3461186-7.4294423-5.9785159-.5261537-3.6323972 1.8426511-7.0543818 5.4276997-7.8408762 2.0711187-.4543658 4.2365624.0545356 5.8884965 1.3838567s2.612292 3.3357706 2.6115035 5.4561433z" fill="#283593"/><ellipse id="Oval" cx="42.5" cy="52" fill="#3f51b5" rx="5.5" ry="6.84"/><circle id="Oval" cx="17" cy="52" fill="#9e9e9e" r="2"/><circle id="Oval" cx="44" cy="52" fill="#9e9e9e" r="2"/><path id="Shape" d="m18.78 20.13c-4.41 1.8-11.78 5.86-11.78 12.87h-4.97c.11937954-1.4980818.66406726-2.9309227 1.57-4.13l7.4-9.87h5c1.038715-.0010248 2.0365677.4045772 2.78 1.13z" fill="#3f51b5"/><path id="Shape" d="m20 23v6c0 2.209139-1.790861 4-4 4h-9c0-7.01 7.37-11.07 11.78-12.87.7760962.7536599 1.2158619 1.7881906 1.22 2.87z" fill="#283593"/><rect id="Rectangle-path" fill="#3f51b5" height="14" rx="4" width="18" x="24" y="19"/><path id="Shape" d="m56 25 .0000039 8h-6.0000039c-2.209139 0-4-1.790861-4-4v-6c0-2.209139 1.790861-4 4-4h3.99c1.3060937 1.7274432 2.0119154 3.8343737 2.01 6z" fill="#283593"/><path id="Shape" d="m53 25 .0000039 8h-3.0000039c-2.209139 0-4-1.790861-4-4v-6c0-2.209139 1.790861-4 4-4h.99c1.3060937 1.7274432 2.0119154 3.8343737 2.01 6z" fill="#3f51b5"/><path id="Shape" d="m58 13c-.0032948 1.1032019-.8967981 1.9967052-2 2h-46c-1.1045695 0-2-.8954305-2-2s.8954305-2 2-2h46c1.1034291.0027483 1.9972517.8965709 2 2z" fill="#707070"/><path id="Shape" d="m55 13c-.0032948 1.1032019-.8967981 1.9967052-2 2h-43c-1.1045695 0-2-.8954305-2-2s.8954305-2 2-2h43c1.1034291.0027483 1.9972517.8965709 2 2z" fill="#9e9e9e"/><rect id="Rectangle-path" fill="#91562d" height="8" rx="2" width="22" x="11" y="3"/><rect id="Rectangle-path" fill="#91562d" height="8" rx="2" width="10" x="37" y="3"/><path id="Shape" d="m57 6c-.0052852 2.56380799-1.9489176 4.7081776-4.4998738 4.9646182s-4.8825198-1.45815536-5.3980073-3.96961149c-.5154876-2.51145614.9521607-5.00585723 3.3978811-5.77500671 1.5202835-.47266565 3.1747074-.19492843 4.4573017.74827171 1.2825944.94320015 2.040786 2.43966324 2.0426983 4.03172829z" fill="#6a1b9a"/><ellipse id="Oval" cx="50.5" cy="6" fill="#9d27b0" rx="3.5" ry="4.78"/></g><g id="Layer_2" fill="#000" transform="translate(0 -1)"><path id="Shape" d="m18 50c-1.6568542 0-3 1.3431458-3 3s1.3431458 3 3 3 3-1.3431458 3-3-1.3431458-3-3-3zm0 4c-.5522847 0-1-.4477153-1-1s.4477153-1 1-1 1 .4477153 1 1-.4477153 1-1 1z"/><path id="Shape" d="m45 50c-1.6568542 0-3 1.3431458-3 3s1.3431458 3 3 3 3-1.3431458 3-3-1.3431458-3-3-3zm0 4c-.5522847 0-1-.4477153-1-1s.4477153-1 1-1 1 .4477153 1 1-.4477153 1-1 1z"/><path id="Shape" d="m29 35h10c2.7600532-.0033061 4.9966939-2.2399468 5-5v-6c-.0033061-2.7600532-2.2399468-4.9966939-5-5h-10c-2.7600532.0033061-4.9966939 2.2399468-5 5v6c.0033061 2.7600532 2.2399468 4.9966939 5 5zm-3-11c0-1.6568542 1.3431458-3 3-3h10c1.6568542 0 3 1.3431458 3 3v6c0 1.6568542-1.3431458 3-3 3h-10c-1.6568542 0-3-1.3431458-3-3z"/><path id="Shape" d="m60 14c-.0040316-1.4901155-1.1032625-2.750459-2.579-2.957 1.5296924-1.6680321 1.9892252-4.05553818 1.1879904-6.17221309-.8012348-2.11667492-2.7265534-3.6014321-4.9773598-3.8384144s-4.4431323.81423742-5.6676306 2.71762749c-.5416691-.48053294-1.2399079-.74717201-1.964-.75h-6c-1.6568542 0-3 1.34314575-3 3v4c.0033144.3414397.0655622.679743.184 1h-2.368c.1184378-.320257.1806856-.6585603.184-1v-4c0-1.65685425-1.3431458-3-3-3h-18c-1.6568542 0-3 1.34314575-3 3v4c.0033144.3414397.0655622.679743.184 1h-.184c-1.65685425 0-3 1.3431458-3 3s1.34314575 3 3 3h2.359c-.5846759.4658802-1.108451 1.0034299-1.559 1.6l-8 10.667c-1.007841 1.350087-1.61908241 2.9545524-1.765 4.633-.00847102.0328914-.01481746.0662937-.019.1 0 .017.009.031.009.047-.014.206-.025.413-.025.62v11.517c-1.37654748.4848523-2.2026937 1.8918441-1.95538732 3.330178.24730637 1.4383339 1.49595006 2.4885874 2.95538732 2.485822h7.069c-.30249887 2.2799907.3967352 4.5793047 1.9173479 6.3048771 1.5206128 1.7255724 3.7137205 2.7084518 6.0136521 2.6951229h10c.5522847 0 1-.4477153 1-1s-.4477153-1-1-1h-4.726c2.0090402-1.7362532 3.0079602-4.3679581 2.657-7h11.138c-.3024989 2.2799907.3967352 4.5793047 1.9173479 6.3048771 1.5206128 1.7255724 3.7137205 2.7084518 6.0136521 2.6951229h10c.5522847 0 1-.4477153 1-1s-.4477153-1-1-1h-4.726c2.0090402-1.7362532 3.0079602-4.3679581 2.657-7h4.069c1.4594373.0027654 2.7080809-1.0474881 2.9553873-2.485822s-.5788398-2.8453257-1.9553873-3.330178v-20.184c-.0027746-3.5863544-1.7552646-6.9457602-4.695-9h3.695c1.6568542 0 3-1.3431458 3-3zm-7-11c2.209139 0 4 1.790861 4 4s-1.790861 4-4 4-4-1.790861-4-4 1.790861-4 4-4zm-14 7v-4c0-.55228475.4477153-1 1-1h6c.5522847 0 1 .44771525 1 1v4c0 .5522847-.4477153 1-1 1h-6c-.5522847 0-1-.4477153-1-1zm-26 0v-4c0-.55228475.4477153-1 1-1h18c.5522847 0 1 .44771525 1 1v4c0 .5522847-.4477153 1-1 1h-18c-.5522847 0-1-.4477153-1-1zm-.5 11h4.5c1.6568542 0 3 1.3431458 3 3v6c0 1.6568542-1.3431458 3-3 3h-12.774c.2176693-.9144635.61690781-1.7758529 1.174-2.533zm-9.5 29c-.55228475 0-1-.4477153-1-1s.44771525-1 1-1h8.765c-.4872205.6058985-.8833963 1.2796669-1.176 2zm15 9c-3.3137085 0-6-2.6862915-6-6s2.6862915-6 6-6 6 2.6862915 6 6c-.0033074 3.3123376-2.6876624 5.9966926-6 6zm7.411-9c-.2926037-.7203331-.6887795-1.3941015-1.176-2h14.53c-.4872205.6058985-.8833963 1.2796669-1.176 2zm19.589 9c-3.3137085 0-6-2.6862915-6-6s2.6862915-6 6-6 6 2.6862915 6 6c-.0033074 3.3123376-2.6876624 5.9966926-6 6zm12-9h-4.589c-.2926037-.7203331-.6887795-1.3941015-1.176-2h5.765c.5522847 0 1 .4477153 1 1s-.4477153 1-1 1zm-.9999963-17h-5.0000037c-1.6568542 0-3-1.3431458-3-3v-6c0-1.6568542 1.3431458-3 3-3h3.478c.9936793 1.4780318 1.5236289 3.2189964 1.522 5zm-3.3560037-14h-1.644c-2.7600532.0033061-4.9966939 2.2399468-5 5v6c.0033061 2.7600532 2.2399468 4.9966939 5 5h5v5h-3c-1.6568542 0-3 1.3431458-3 3 0 .5522847.4477153 1 1 1s1-.4477153 1-1 .4477153-1 1-1h3v4h-7.136c-2.4034549-1.3333808-5.3245451-1.3333808-7.728 0h-17.136v-9c0-.5522847-.4477153-1-1-1s-1 .4477153-1 1v9h-.136c-2.4034549-1.3333808-5.3245451-1.3333808-7.728 0h-10.136v-5h3c1.65685425 0 3-1.3431458 3-3 0-.5522847-.44771525-1-1-1s-1 .4477153-1 1-.44771525 1-1 1h-3v-4h13c2.7600532-.0033061 4.9966939-2.2399468 5-5v-6c-.0033061-2.7600532-2.2399468-4.9966939-5-5h-2.883c1.3062307-1.2754124 3.0573874-1.9926586 4.883-2h28c2.0551183-.0008691 4.0479722.7053158 5.644 2zm-33.644-4h-8c-.5522847 0-1-.4477153-1-1s.4477153-1 1-1h46c.5522847 0 1 .4477153 1 1s-.4477153 1-1 1z"/><circle id="Oval" cx="53" cy="7" r="1"/></g></g></svg>