<svg height="512" viewBox="0 0 58 58" width="512" xmlns="http://www.w3.org/2000/svg"><g id="019---Campervan" fill="none"><path id="Shape" d="m27 58h-10c-.5522847 0-1-.4477153-1-1s.4477153-1 1-1h10c.5522847 0 1 .4477153 1 1s-.4477153 1-1 1z" fill="#7f8284"/><path id="Shape" d="m54 58h-10c-.5522847 0-1-.4477153-1-1s.4477153-1 1-1h10c.5522847 0 1 .4477153 1 1s-.4477153 1-1 1z" fill="#7f8284"/><path id="Shape" d="m40.4 46h-19.8c-.5522847 0-1-.4477153-1-1s.4477153-1 1-1h19.8c.5522847 0 1 .4477153 1 1s-.4477153 1-1 1z" fill="#000"/><path id="Shape" d="m56 32v13h-54c0-13 0-12.51 0-13h14c2.209139 0 4-1.790861 4-4v-6c0-2.209139-1.790861-4-4-4h-5l.6-.8c1.5108351-2.0144467 3.8819416-3.2 6.4-3.2h28c3.147573 0 6.1114562 1.4819416 8 4h-4c-2.209139 0-4 1.790861-4 4v6c0 2.209139 1.790861 4 4 4z" fill="#14a085"/><path id="Shape" d="m54 32v13h-50c0-13 0-12.51 0-13h11.3c2.12453-.0866728 3.7788868-1.8751667 3.7-4v-6c.0788868-2.1248333-1.57547-3.9133272-3.7-4h-3l.56-.8c1.3335784-1.9833674 3.5600609-3.1808034 5.95-3.2h25.93c2.9763473.0276396 5.7465307 1.525036 7.4 4h-1.44c-2.12453.0866728-3.7788868 1.8751667-3.7 4v6c-.0788868 2.1248333 1.57547 3.9133272 3.7 4z" fill="#26b99a"/><path id="Shape" d="m2 49c-1.1045695 0-2-.8954305-2-2s.8954305-2 2-2h54c1.1045695 0 2 .8954305 2 2s-.8954305 2-2 2z" fill="#95a5a5"/><path id="Shape" d="m3.86 49c-1.1045695 0-2-.8954305-2-2s.8954305-2 2-2h50.28c1.1045695 0 2 .8954305 2 2s-.8954305 2-2 2z" fill="#bdc3c7"/><circle id="Oval" cx="17" cy="51" fill="#393f4a" r="7"/><circle id="Oval" cx="44" cy="51" fill="#393f4a" r="7"/><circle id="Oval" cx="17" cy="51" fill="#d1d4d1" r="3"/><circle id="Oval" cx="44" cy="51" fill="#d1d4d1" r="3"/><path id="Shape" d="m18.78 19.13c-4.41 1.8-11.78 5.87-11.78 12.87h-5c.12806858-1.5011948.68328057-2.9343358 1.6-4.13l7.4-9.87h5c1.0381977.0016193 2.0350935.4068324 2.78 1.13z" fill="#b0d3f0"/><path id="Shape" d="m20 22v6c0 2.209139-1.790861 4-4 4h-9c0-7 7.37-11.07 11.78-12.87.7782027.7522139 1.2183648 1.7876772 1.22 2.87z" fill="#90bae1"/><rect id="Rectangle-path" fill="#41767f" height="14" rx="4" width="18" x="24" y="18"/><path id="Shape" d="m56 24 .0000275 8h-6.0000275c-2.209139 0-4-1.790861-4-4v-6c0-2.209139 1.790861-4 4-4h4c1.3027854 1.7285669 2.0050882 3.8354752 2 6z" fill="#41767f"/><path id="Shape" d="m23 35v10h-2v-10c0-.5522847.4477153-1 1-1s1 .4477153 1 1z" fill="#14a085"/><path id="Shape" d="m56 10h-46c-1.1045695 0-2 .8954305-2 2s.8954305 2 2 2h46c1.1045695 0 2-.8954305 2-2s-.8954305-2-2-2z" fill="#95a5a5"/><path id="Shape" d="m54 10h-42c-1.1045695 0-2 .8954305-2 2s.8954305 2 2 2h42c1.1045695 0 2-.8954305 2-2s-.8954305-2-2-2z" fill="#bdc3c7"/><rect id="Rectangle-path" fill="#a56a43" height="8" rx="2" width="22" x="11" y="2"/><rect id="Rectangle-path" fill="#cb8252" height="8" rx="2" width="18" x="13" y="2"/><rect id="Rectangle-path" fill="#805333" height="8" rx="2" width="10" x="37" y="2"/><rect id="Rectangle-path" fill="#a56a43" height="8" rx="2" width="6" x="39" y="2"/><circle id="Oval" cx="52" cy="5" fill="#7d6599" r="5"/><circle id="Oval" cx="52" cy="5" fill="#5d4c72" r="3"/><g fill="#14a085"><path id="Shape" d="m56 38v2h-4c-.5522847 0-1 .4477153-1 1s-.4477153 1-1 1c-1.9 0-1-4 2-4z"/><path id="Shape" d="m6 39h-4v-2h4c.55228475 0 1-.4477153 1-1s.44771525-1 1-1c1.9 0 1 4-2 4z"/></g></g></svg>