<?xml version="1.0" encoding="iso-8859-1"?>
<!-- Generator: Adobe Illustrator 19.0.0, SVG Export Plug-In . SVG Version: 6.00 Build 0)  -->
<svg xmlns="http://www.w3.org/2000/svg" xmlns:xlink="http://www.w3.org/1999/xlink" version="1.1" id="Layer_1" x="0px" y="0px" viewBox="0 0 512 512" style="enable-background:new 0 0 512 512;" xml:space="preserve" width="512" height="512">
<g>
	<path d="M316,406c5.52,0,10-4.48,10-10s-4.48-10-10-10s-10,4.48-10,10S310.48,406,316,406z"/>
	<path d="M256,280c-5.52,0-10,4.48-10,10s4.48,10,10,10s10-4.48,10-10S261.52,280,256,280z"/>
	<path d="M196,406c5.52,0,10-4.48,10-10s-4.48-10-10-10s-10,4.48-10,10S190.48,406,196,406z"/>
	<path d="M502,0H10C4.477,0,0,4.477,0,10s4.477,10,10,10h13.82l11.706,23.412C40.641,53.644,50.923,60,62.36,60H106v20.999   C83.4,85.567,66,105.594,66,130c0,5.523,4.477,9.99,10,9.99h11.72C86.61,143.12,86,146.494,86,150c0,16.542,13.458,30,30,30   s30-13.458,30-30c0-3.506-0.61-6.87-1.72-10H156c5.523,0,10-4.477,10-10c0-24.383-17.38-44.429-40-49.001V60h120v20.999   c-22.6,4.568-40,24.595-40,49.001c0,5.523,4.477,9.99,10,9.99h11.72c-1.11,3.13-1.72,6.504-1.72,10.01c0,16.542,13.458,30,30,30   s30-13.458,30-30c0-3.506-0.61-6.87-1.72-10H296c5.523,0,10-4.477,10-10c0-24.383-17.38-44.429-40-49.001V60h120v20.999   c-22.6,4.568-40,24.595-40,49.001c0,5.523,4.477,9.99,10,9.99h11.72c-1.11,3.13-1.72,6.504-1.72,10.01c0,16.542,13.458,30,30,30   s30-13.458,30-30c0-3.506-0.61-6.87-1.72-10H436c5.523,0,10-4.477,10-10c0-24.383-17.38-44.429-40-49.001V60h43.64   c11.437,0,21.719-6.356,26.834-16.588L488.18,20H502c5.523,0,10-4.477,10-10S507.523,0,502,0z M126,150c0,5.514-4.486,10-10,10   s-10-4.486-10-10s4.486-10,10-10S126,144.486,126,150z M144.298,120H87.702c4.027-11.408,15.002-20,28.298-20   C129.288,100,140.269,108.584,144.298,120z M266,150c0,5.514-4.486,10-10,10s-10-4.486-10-10s4.486-10,10-10S266,144.486,266,150z    M284.298,120h-56.597c4.027-11.408,15.002-20,28.298-20C269.288,100,280.269,108.584,284.298,120z M406,150   c0,5.514-4.486,10-10,10s-10-4.486-10-10s4.486-10,10-10S406,144.486,406,150z M424.298,120h-56.597   c4.027-11.408,15.002-20,28.298-20C409.288,100,420.269,108.584,424.298,120z M458.585,34.468C456.879,37.88,453.452,40,449.64,40   H62.36c-3.812,0-7.239-2.12-8.945-5.532L46.181,20H465.82L458.585,34.468z"/>
	<path d="M502,240H10c-5.523,0-10,4.477-10,10v252c0,5.523,4.477,10,10,10h492c5.523,0,10-4.477,10-10V250   C512,244.477,507.523,240,502,240z M20,492V300h196c5.523,0,10-4.477,10-10s-4.477-10-10-10H20v-20h472v20H296   c-5.523,0-10,4.477-10,10s4.477,10,10,10h196v192H20z"/>
	<path d="M462,320H276c-5.523,0-10,4.477-10,10v132c0,5.523,4.477,10,10,10h186c5.523,0,10-4.477,10-10V330   C472,324.477,467.523,320,462,320z M452,452H286V340h166V452z"/>
	<path d="M236,320H50c-5.523,0-10,4.477-10,10v132c0,5.523,4.477,10,10,10h186c5.523,0,10-4.477,10-10V330   C246,324.477,241.523,320,236,320z M226,452H60V340h166V452z"/>
</g>















</svg>
