<svg height="512pt" viewBox="0 0 512 512" width="512pt" xmlns="http://www.w3.org/2000/svg"><path d="m504.5 250h-497c-4.140625 0-7.5 3.355469-7.5 7.5v62.5c0 4.144531 3.359375 7.5 7.5 7.5s7.5-3.355469 7.5-7.5v-25h482v202h-482v-144.667969c0-4.140625-3.359375-7.5-7.5-7.5s-7.5 3.359375-7.5 7.5v152.167969c0 4.144531 3.359375 7.5 7.5 7.5h497c4.144531 0 7.5-3.355469 7.5-7.5v-247c0-4.144531-3.355469-7.5-7.5-7.5zm-489.5 30v-15h482v15zm0 0"/><path d="m504.5 0h-497c-4.140625 0-7.5 3.355469-7.5 7.5v30c0 4.144531 3.359375 7.5 7.5 7.5h91v45.640625c-22.355469 1.789063-40 20.550781-40 43.359375 0 6.339844 5.160156 11.5 11.5 11.5h13.503906c-.003906.144531-.003906.285156-.003906.429688 0 12.40625 10.09375 22.5 22.5 22.5s22.5-10.09375 22.5-22.5c0-.144532-.003906-.285157-.003906-.429688h13.503906c6.339844 0 11.5-5.160156 11.5-11.5 0-22.808594-17.644531-41.570312-40-43.359375v-45.640625h135v45.640625c-22.355469 1.789063-40 20.550781-40 43.359375 0 6.339844 5.160156 11.5 11.5 11.5h13.503906c-.003906.144531-.003906.285156-.003906.429688 0 12.40625 10.09375 22.5 22.5 22.5s22.5-10.09375 22.5-22.5c0-.144532-.003906-.285157-.003906-.429688h13.503906c6.339844 0 11.5-5.160156 11.5-11.5 0-22.808594-17.644531-41.570312-40-43.359375v-45.640625h88.5c4.144531 0 7.5-3.355469 7.5-7.5s-3.355469-7.5-7.5-7.5h-337v-15h482v15h-113c-4.144531 0-7.5 3.355469-7.5 7.5s3.355469 7.5 7.5 7.5h14.5v45.640625c-22.355469 1.789063-40 20.550781-40 43.359375 0 6.339844 5.160156 11.5 11.5 11.5h13.503906c-.003906.144531-.003906.285156-.003906.429688 0 12.40625 10.09375 22.5 22.5 22.5s22.5-10.09375 22.5-22.5c0-.144532-.003906-.285157-.003906-.429688h13.503906c6.339844 0 11.5-5.160156 11.5-11.5 0-22.808594-17.644531-41.570312-40-43.359375v-45.640625h91c4.144531 0 7.5-3.355469 7.5-7.5v-30c0-4.144531-3.355469-7.5-7.5-7.5zm-391 145.929688c0 4.136718-3.363281 7.5-7.5 7.5s-7.5-3.363282-7.5-7.5c0-.144532.003906-.289063.011719-.429688h14.976562c.007813.140625.011719.285156.011719.429688zm24.785156-15.429688h-19.433594c-.085937 0-.171874 0-.261718 0h-25.171875c-.09375-.003906-.183594-.003906-.277344 0h-19.425781c1.730468-14.070312 13.753906-25 28.285156-25h8c14.53125 0 26.554688 10.929688 28.285156 25zm125.214844 15.429688c0 4.136718-3.363281 7.5-7.5 7.5s-7.5-3.363282-7.5-7.5c0-.144532.003906-.289063.011719-.429688h14.976562c.007813.140625.011719.285156.011719.429688zm24.785156-15.429688h-19.460937c-.070313 0-.140625 0-.210938 0h-25.195312c-.09375-.003906-.183594-.003906-.277344 0h-19.425781c1.726562-14.070312 13.753906-25 28.285156-25h8c14.53125 0 26.554688 10.929688 28.285156 25zm125.214844 15.429688c0 4.136718-3.363281 7.5-7.5 7.5s-7.5-3.363282-7.5-7.5c0-.144532.003906-.289063.011719-.429688h14.976562c.007813.140625.011719.285156.011719.429688zm24.785156-15.429688h-19.460937c-.070313 0-.140625 0-.210938 0h-25.226562c-.070313 0-.140625 0-.210938 0h-19.460937c1.730468-14.070312 13.757812-25 28.285156-25h8c14.53125 0 26.554688 10.929688 28.285156 25zm0 0"/><path d="m241 482c4.140625 0 7.5-3.355469 7.5-7.5v-157c0-4.144531-3.359375-7.5-7.5-7.5h-203.5c-4.140625 0-7.5 3.355469-7.5 7.5v157c0 4.144531 3.359375 7.5 7.5 7.5zm-196-157h188.5v142h-188.5zm0 0"/><path d="m211 340h-143.5c-4.140625 0-7.5 3.355469-7.5 7.5v97c0 4.144531 3.359375 7.5 7.5 7.5h143.5c4.140625 0 7.5-3.355469 7.5-7.5v-97c0-4.144531-3.359375-7.5-7.5-7.5zm-7.5 97h-128.5v-82h128.5zm0 0"/><path d="m448 482h26.5c4.144531 0 7.5-3.355469 7.5-7.5v-157c0-4.144531-3.355469-7.5-7.5-7.5h-203.5c-4.144531 0-7.5 3.355469-7.5 7.5v157c0 4.144531 3.355469 7.5 7.5 7.5h145c4.144531 0 7.5-3.355469 7.5-7.5s-3.355469-7.5-7.5-7.5h-137.5v-142h188.5v142h-19c-4.144531 0-7.5 3.355469-7.5 7.5s3.355469 7.5 7.5 7.5zm0 0"/><path d="m452 444.5v-97c0-4.144531-3.355469-7.5-7.5-7.5h-143.5c-4.144531 0-7.5 3.355469-7.5 7.5v97c0 4.144531 3.355469 7.5 7.5 7.5h143.5c4.144531 0 7.5-3.355469 7.5-7.5zm-15-7.5h-128.5v-82h128.5zm0 0"/></svg>