<svg id="celing_x5F_light" enable-background="new 0 0 300 300" height="512" viewBox="0 0 300 300" width="512" xmlns="http://www.w3.org/2000/svg"><path d="m253.086 173.453c-.762-.918-1.891-1.453-3.086-1.453h-52c-1.195 0-2.324.535-3.086 1.453-.758.922-1.066 2.133-.84 3.305l9.277 48c.363 1.883 2.008 3.242 3.926 3.242h13.209c-4.326 14.093-17.455 24-32.487 24-13.486 0-25.433-7.934-30.894-20h7.616c1.918 0 3.562-1.359 3.926-3.242l9.277-48c.227-1.172-.082-2.383-.84-3.305-.76-.918-1.889-1.453-3.084-1.453h-20v-100h16c17.645 0 32-14.355 32-32 0-2.211-1.789-4-4-4h-96c-2.211 0-4 1.789-4 4 0 17.645 14.355 32 32 32h16v100h-24c-1.195 0-2.324.535-3.086 1.453-.758.922-1.066 2.133-.84 3.305l9.277 48c.363 1.883 2.008 3.242 3.926 3.242h12.287c-4.847 11.895-16.508 20-29.564 20-14.616 0-27.377-10.113-30.975-24h9.697c1.918 0 3.562-1.359 3.926-3.242l9.277-48c.227-1.172-.082-2.383-.84-3.305-.761-.918-1.89-1.453-3.085-1.453h-52c-1.195 0-2.324.535-3.086 1.453-.758.922-1.066 2.133-.84 3.305l9.277 48c.363 1.883 2.008 3.242 3.926 3.242h15.566c3.757 18.379 20.204 32 39.157 32 15.734 0 29.937-9.375 36.365-23.38 6.999 14.183 21.46 23.38 37.635 23.38 19.387 0 36.2-13.351 40.758-32h11.965c1.918 0 3.562-1.359 3.926-3.242l9.277-48c.226-1.172-.082-2.383-.84-3.305zm-146.754-125.453h87.336c-1.91 11.336-11.797 20-23.668 20h-40c-11.871 0-21.758-8.664-23.668-20zm-51.484 132h42.305l-7.73 40h-26.845zm72 4h42.305l-7.73 40h-26.844zm110.574 36h-26.844l-7.73-40h42.305z"/></svg>