<svg id="celing_x5F_light" enable-background="new 0 0 300 300" height="512" viewBox="0 0 300 300" width="512" xmlns="http://www.w3.org/2000/svg"><circle cx="128.001" cy="144" fill="#fcf2ed" r="92"/><path d="m180.001 72h-40c-15.464 0-28-12.536-28-28h96c0 15.464-12.536 28-28 28z" fill="#bf7e68"/><g fill="#4c241d"><path d="m180.001 76h-40c-17.645 0-32-14.355-32-32 0-2.211 1.789-4 4-4h96c2.211 0 4 1.789 4 4 0 17.645-14.356 32-32 32zm-63.668-28c1.91 11.336 11.797 20 23.668 20h40c11.871 0 21.758-8.664 23.668-20z"/><path d="m198.001 260c-23.16 0-42-18.84-42-42v-146c0-2.211 1.789-4 4-4s4 1.789 4 4v146c0 18.746 15.254 34 34 34s34-15.254 34-34v-4c0-2.211 1.789-4 4-4s4 1.789 4 4v4c0 23.16-18.84 42-42 42z"/><path d="m124.001 260c-22.055 0-40-17.945-40-40v-14.465c0-2.211 1.789-4 4-4s4 1.789 4 4v14.465c0 17.645 14.355 32 32 32s32-14.355 32-32v-18.699c0-2.211 1.789-4 4-4s4 1.789 4 4v18.699c0 22.055-17.946 40-40 40z"/></g><path d="m250.725 224h-33.449l-9.275-48h52z" fill="#ffce56"/><path d="m250.723 228h-33.445c-1.918 0-3.562-1.359-3.926-3.242l-9.277-48c-.227-1.172.082-2.383.84-3.305.762-.918 1.891-1.453 3.086-1.453h52c1.195 0 2.324.535 3.086 1.453.758.922 1.066 2.133.84 3.305l-9.277 48c-.364 1.883-2.009 3.242-3.927 3.242zm-30.144-8h26.844l7.73-40h-42.305z" fill="#4c241d"/><path d="m102.725 224h-33.449l-9.275-48h52z" fill="#ffce56"/><path d="m102.723 228h-33.445c-1.918 0-3.562-1.359-3.926-3.242l-9.277-48c-.227-1.172.082-2.383.84-3.305.762-.918 1.891-1.453 3.086-1.453h52c1.195 0 2.324.535 3.086 1.453.758.922 1.066 2.133.84 3.305l-9.277 48c-.364 1.883-2.009 3.242-3.927 3.242zm-30.144-8h26.844l7.73-40h-42.305z" fill="#4c241d"/><path d="m174.725 228h-33.449l-9.275-48h52z" fill="#ffce56"/><path d="m174.723 232h-33.445c-1.918 0-3.562-1.359-3.926-3.242l-9.277-48c-.227-1.172.082-2.383.84-3.305.762-.918 1.891-1.453 3.086-1.453h52c1.195 0 2.324.535 3.086 1.453.758.922 1.066 2.133.84 3.305l-9.277 48c-.364 1.883-2.009 3.242-3.927 3.242zm-30.144-8h26.844l7.73-40h-42.305z" fill="#4c241d"/></svg>