<?xml version="1.0" encoding="iso-8859-1"?>
<!-- Generator: Adobe Illustrator 21.0.0, SVG Export Plug-In . SVG Version: 6.00 Build 0)  -->
<svg xmlns="http://www.w3.org/2000/svg" xmlns:xlink="http://www.w3.org/1999/xlink" version="1.1" id="Capa_1" x="0px" y="0px" viewBox="0 0 512 512" style="enable-background:new 0 0 512 512;" xml:space="preserve" width="512" height="512">
<g>
	<path d="M186,30h55v96.208h-7c-23.71,0-43,19.29-43,43v6.344h130v-6.344c0-23.71-19.29-43-43-43h-7V30h55c8.284,0,15-6.716,15-15   c0-8.284-6.716-15-15-15H186c-8.284,0-15,6.716-15,15C171,23.284,177.716,30,186,30z"/>
	<path d="M255.996,442.001c-8.284,0-15,6.716-15,15v40c0,8.284,6.716,15,15,15c8.284,0,15-6.716,15-15v-40   C270.996,448.716,264.28,442.001,255.996,442.001z"/>
	<path d="M328.998,433.396c-4.143-7.176-13.317-9.635-20.49-5.492c-7.175,4.142-9.634,13.315-5.492,20.49l19.993,34.634   c2.779,4.814,7.82,7.504,13.005,7.504c2.544,0,5.124-0.648,7.485-2.012c7.175-4.143,9.634-13.315,5.492-20.49L328.998,433.396z"/>
	<path d="M203.484,427.904c-7.174-4.142-16.348-1.683-20.49,5.492l-19.993,34.634c-4.142,7.175-1.683,16.347,5.492,20.49   c2.362,1.363,4.94,2.012,7.485,2.012c5.185,0,10.227-2.691,13.005-7.504l19.993-34.634   C213.117,441.219,210.659,432.047,203.484,427.904z"/>
	<path d="M256.008,412.001c24.484,0,46.262-11.796,59.959-30H196.048C209.745,400.205,231.523,412.001,256.008,412.001z"/>
	<path d="M321.54,205.551H190.461c-48.197,24.128-81.369,73.984-81.369,131.45c0,8.284,6.716,15,15,15h263.817   c8.284,0,15-6.716,15-15C402.908,279.535,369.737,229.679,321.54,205.551z"/>
</g>















</svg>
