<?xml version="1.0" encoding="iso-8859-1"?>
<!-- Generator: Adobe Illustrator 21.0.0, SVG Export Plug-In . SVG Version: 6.00 Build 0)  -->
<svg xmlns="http://www.w3.org/2000/svg" xmlns:xlink="http://www.w3.org/1999/xlink" version="1.1" id="Capa_1" x="0px" y="0px" viewBox="0 0 512 512" style="enable-background:new 0 0 512 512;" xml:space="preserve" width="512" height="512">
<g>
	<path d="M255.996,442.001c-8.284,0-15,6.716-15,15V497c0,8.284,6.716,15,15,15c8.284,0,15-6.716,15-15v-39.999   C270.996,448.717,264.28,442.001,255.996,442.001z"/>
	<path d="M328.998,433.397c-4.142-7.176-13.319-9.634-20.49-5.491c-7.175,4.142-9.634,13.315-5.491,20.489l19.993,34.633   c2.777,4.813,7.82,7.504,13.004,7.504c2.545,0,5.124-0.648,7.485-2.013c7.175-4.142,9.634-13.315,5.492-20.489L328.998,433.397z"/>
	<path d="M203.484,427.905c-7.177-4.145-16.349-1.685-20.49,5.491l-19.993,34.633c-4.142,7.174-1.683,16.348,5.491,20.489   c2.363,1.364,4.94,2.013,7.485,2.013c5.184,0,10.227-2.691,13.005-7.504l19.993-34.633   C213.117,441.221,210.659,432.047,203.484,427.905z"/>
	<path d="M377.334,254.158c-14.372-21.01-33.712-37.766-56.334-48.925v-36.027c0-23.71-19.29-42.999-43-42.999h-7V30h55   c8.284,0,15-6.716,15-15s-6.716-15-15-15H186c-8.284,0-15,6.716-15,15s6.716,15,15,15h55v96.208h-7c-23.71,0-43,19.289-43,42.999   v36.026c-22.621,11.157-41.96,27.912-56.331,48.922c-16.733,24.459-25.577,53.107-25.577,82.847c0,8.284,6.716,15,15,15h58.425   c6.969,34.191,37.271,59.999,73.491,59.999c36.219,0,66.522-25.808,73.49-59.999h58.411c8.284,0,15-6.716,15-15   C402.908,307.265,394.065,278.617,377.334,254.158z M221,169.207c0-7.168,5.832-12.999,13-12.999h44c7.168,0,13,5.831,13,12.999   v30.637h-70V169.207z M256.007,382.001c-19.554,0-36.227-12.541-42.42-29.999h84.839   C292.234,369.46,275.562,382.001,256.007,382.001z M140.042,322.002c5.166-40.516,31.061-75.497,69.079-92.129l93.764,0.003   c38.012,16.632,63.904,51.616,69.073,92.126H140.042z"/>
</g>















</svg>
