<svg id="Layer" enable-background="new 0 0 64 64" height="512" viewBox="0 0 64 64" width="512" xmlns="http://www.w3.org/2000/svg"><path d="m17 43v4c0 1.104.896 2 2 2h6c0 3.859 3.141 7 7 7s7-3.141 7-7h6c1.104 0 2-.896 2-2v-4c0-7.592-5.673-13.868-13-14.851v-8.149c3.309 0 6-2.691 6-6v-4c0-1.104-.896-2-2-2h-12c-1.104 0-2 .896-2 2v4c0 3.309 2.691 6 6 6v8.149c-7.327.983-13 7.259-13 14.851zm11-29v-2h8v2c0 1.103-.897 2-2 2h-4c-1.103 0-2-.897-2-2zm4 38c-1.654 0-3-1.346-3-3h6c0 1.654-1.346 3-3 3zm11-9v2h-6.4c-.009 0-.018 0-.027 0h-9.149c-.006 0-.012 0-.019 0h-6.405v-2c0-6.065 4.935-11 11-11s11 4.935 11 11z"/></svg>