<svg id="Capa_1" enable-background="new 0 0 512 512" height="512" viewBox="0 0 512 512" width="512" xmlns="http://www.w3.org/2000/svg"><path d="m163.996 227.503h-22.036c-5.523 0-10-4.477-10-10v-99.658c0-5.522 4.477-10 10-10h22.036c5.523 0 10 4.478 10 10s-4.477 10-10 10h-12.036v79.658h12.036c5.523 0 10 4.478 10 10s-4.477 10-10 10z"/><path d="m163.996 467.843h-22.036c-5.523 0-10-4.478-10-10v-145.686c0-5.522 4.477-10 10-10h22.036c5.523 0 10 4.478 10 10s-4.477 10-10 10h-12.036v125.686h12.036c5.523 0 10 4.478 10 10s-4.477 10-10 10z"/><path d="m312.663 393.95-16.581 3.955-20.99-12.905 20.99-12.905 16.581 3.955c.78.186 1.561.274 2.329.274 4.522 0 8.623-3.09 9.719-7.682 1.281-5.372-2.035-10.766-7.407-12.048l-10.882-2.596 2.596-10.881c1.281-5.372-2.035-10.766-7.407-12.048-5.371-1.276-10.766 2.035-12.048 7.407l-3.955 16.58-19.608 12.057v-23.017l12.053-12.053c3.905-3.905 3.905-10.237 0-14.143-3.906-3.904-10.236-3.904-14.143 0l-7.91 7.91-7.91-7.91c-3.906-3.904-10.236-3.904-14.143 0-3.905 3.905-3.905 10.237 0 14.143l12.053 12.053v23.017l-19.607-12.055-3.955-16.58c-1.281-5.373-6.683-8.683-12.048-7.407-5.372 1.282-8.688 6.676-7.407 12.048l2.596 10.881-10.882 2.596c-5.372 1.282-8.689 6.676-7.407 12.048 1.096 4.593 5.196 7.682 9.719 7.682.769 0 1.549-.089 2.329-.274l16.581-3.955 20.989 12.903-20.99 12.905-16.581-3.955c-5.372-1.276-10.766 2.035-12.048 7.407-1.281 5.372 2.035 10.766 7.407 12.048l10.882 2.596-2.596 10.881c-1.281 5.372 2.035 10.766 7.407 12.048.78.186 1.561.274 2.329.274 4.522 0 8.623-3.09 9.719-7.682l3.955-16.581 19.608-12.054v23.018l-12.053 12.053c-3.905 3.905-3.905 10.237 0 14.143 3.906 3.904 10.236 3.904 14.143 0l7.91-7.91 7.91 7.91c1.953 1.952 4.512 2.929 7.071 2.929 2.56 0 5.118-.977 7.071-2.929 3.905-3.905 3.905-10.237 0-14.143l-12.052-12.054v-23.018l19.607 12.055 3.955 16.581c1.096 4.593 5.196 7.683 9.719 7.682.768 0 1.55-.089 2.329-.274 5.372-1.282 8.688-6.676 7.407-12.048l-2.596-10.881 10.882-2.596c5.372-1.282 8.688-6.676 7.407-12.048s-6.674-8.681-12.047-7.407z"/><path d="m256.18 20c-4.172 0-7.987-2.697-9.402-6.615-1.412-3.909-.181-8.444 3.032-11.091 3.223-2.655 7.859-3.016 11.456-.899 3.593 2.115 5.527 6.384 4.734 10.48-.902 4.649-5.076 8.125-9.82 8.125z"/><path d="m376.246 0h-75.04c-5.522 0-10 4.477-10 10s4.478 10 10 10h75.04c14.171 0 25.7 11.529 25.7 25.7v11.288h-291.892v-11.288c0-14.171 11.529-25.7 25.7-25.7h75.04c5.523 0 10-4.477 10-10s-4.477-10-10-10h-75.04c-25.199 0-45.7 20.501-45.7 45.7v456.3c0 5.522 4.478 10 10 10h311.893c5.523 0 10-4.478 10-10v-456.3c-.001-25.199-20.502-45.7-45.701-45.7zm25.7 76.988v181.012h-291.892v-181.012zm0 415.012h-291.892v-214h291.893v214z"/></svg>