<svg height="496pt" viewBox="0 0 496 496" width="496pt" xmlns="http://www.w3.org/2000/svg"><path d="m432 176h-16v-32c0-8.824219-7.175781-16-16-16h-32c-8.824219 0-16 7.175781-16 16v32h-32v-16c0-8.824219-7.175781-16-16-16h-32c-8.824219 0-16 7.175781-16 16v16h-16v-16c0-8.824219-7.175781-16-16-16h-32c-8.824219 0-16 7.175781-16 16v16h-32v-32c0-8.824219-7.175781-16-16-16h-32c-8.824219 0-16 7.175781-16 16v32h-16c-8.824219 0-16 7.175781-16 16v32c0 8.824219 7.175781 16 16 16v208c-8.824219 0-16 7.175781-16 16v32h400v-32c0-8.824219-7.175781-16-16-16v-208c8.824219 0 16-7.175781 16-16v-32c0-8.824219-7.175781-16-16-16zm-64-32h32v32h-32zm-96 16h32v16h-32zm-80 0h32v16h-32zm-96-16h32v32h-32zm320 304h-32v16h48v16h-368v-16h48v-16h-32v-208h336zm16-224h-368v-32h368zm0 0"/><path d="m232.566406 389.023438 14.867188 5.953124 20.382812-50.976562h-22.871094l10.214844-20.425781-14.320312-7.148438-21.785156 43.574219h25.128906zm0 0"/><path d="m172.398438 424h151.203124c11.246094 0 20.398438-9.152344 20.398438-20.398438 0-3.96875-1.070312-7.65625-3.144531-10.882812l-73.832031-118.152344c-4.113282-6.613281-11.222657-10.566406-19.023438-10.566406s-14.910156 3.953125-19.023438 10.558594l-73.792968 118.082031c-2.113282 3.304687-3.183594 6.992187-3.183594 10.960937 0 11.246094 9.152344 20.398438 20.398438 20.398438zm-3.695313-22.800781 73.839844-118.167969c1.167969-1.871094 3.265625-3.03125 5.457031-3.03125s4.289062 1.160156 5.464844 3.039062l73.878906 118.242188c.449219.695312.65625 1.429688.65625 2.320312 0 2.382813-2.015625 4.398438-4.398438 4.398438h-151.203124c-2.382813 0-4.398438-2.015625-4.398438-4.398438 0-.890624.207031-1.625.703125-2.402343zm0 0"/><path d="m128 448h240v16h-240zm0 0"/><path d="m440 0c-28.152344 0-51.457031 20.902344-55.359375 48h-24.640625v16h24.640625c3.902344 27.097656 27.207031 48 55.359375 48 30.871094 0 56-25.121094 56-56s-25.128906-56-56-56zm0 96c-22.054688 0-40-17.945312-40-40s17.945312-40 40-40 40 17.945312 40 40-17.945312 40-40 40zm0 0"/><path d="m448 32h-16v16h-16v16h16v16h16v-16h16v-16h-16zm0 0"/><path d="m111.359375 64h67.695313l21.992187 43.992188 22.832031-60.894532 31.503906 86.636719 29.890626-69.734375h26.726562v-16h-37.273438l-18.117187 42.273438-32.496094-89.363282-25.167969 67.105469-10-20.015625h-77.585937c-3.902344-27.097656-27.207031-48-55.359375-48-30.871094 0-56 25.121094-56 56s25.128906 56 56 56c28.152344 0 51.457031-20.902344 55.359375-48zm-95.359375-8c0-22.054688 17.945312-40 40-40s40 17.945312 40 40-17.945312 40-40 40-40-17.945312-40-40zm0 0"/><path d="m32 48h48v16h-48zm0 0"/><path d="m328 48h16v16h-16zm0 0"/></svg>