<?xml version="1.0" encoding="iso-8859-1"?>
<!-- Generator: Adobe Illustrator 21.0.0, SVG Export Plug-In . SVG Version: 6.00 Build 0)  -->
<svg xmlns="http://www.w3.org/2000/svg" xmlns:xlink="http://www.w3.org/1999/xlink" version="1.1" id="Capa_1" x="0px" y="0px" viewBox="0 0 512.005 512.005" style="enable-background:new 0 0 512.005 512.005;" xml:space="preserve" width="512" height="512">
<g>
	<g>
		<path style="fill:#FFF566;" d="M256.01,412.005c-41.355,0-75-33.645-75-75c0-8.284,6.716-15,15-15c8.284,0,111.715,0,119.999,0    c8.284,0,15,6.716,15,15C331.009,378.36,297.365,412.005,256.01,412.005z"/>
		<path style="fill:#FFD236;" d="M316.009,322.005c-4.143,0-32.081,0-60.016,0v89.999c0.006,0,0.011,0.001,0.016,0.001    c41.355,0,74.999-33.645,74.999-75C331.009,328.721,324.294,322.005,316.009,322.005z"/>
	</g>
	<g>
		<path style="fill:#FFEDD6;" d="M387.911,352.005H124.094c-8.284,0-15-6.716-15-15c0-81.006,65.903-146.908,146.909-146.908    s146.908,65.902,146.908,146.908C402.911,345.289,396.195,352.005,387.911,352.005z"/>
		<path style="fill:#FFD2B4;" d="M256.003,190.097c-0.003,0-0.006,0-0.009,0v161.908h131.917c8.284,0,15-6.716,15-15    C402.911,255.999,337.009,190.097,256.003,190.097z"/>
	</g>
	<g>
		<g>
			<g>
				<path style="fill:#878477;" d="M256.003,156.209c-8.284,0-15-6.716-15-15V15c0-8.284,6.716-15,15-15c8.284,0,15,6.716,15,15      v126.209C271.003,149.493,264.287,156.209,256.003,156.209z"/>
				<path style="fill:#4C4A40;" d="M256.003,0c-0.003,0-0.006,0.001-0.009,0.001v156.208c0.003,0,0.006,0.001,0.009,0.001      c8.284,0,15-6.716,15-15V15C271.003,6.716,264.287,0,256.003,0z"/>
			</g>
			<g>
				<path style="fill:#A19D8D;" d="M326.003,30h-140c-8.284,0-15-6.716-15-15s6.716-15,15-15h140c8.284,0,15,6.716,15,15      S334.287,30,326.003,30z"/>
				<path style="fill:#696453;" d="M326.003,0h-70.009v30h70.009c8.284,0,15-6.716,15-15S334.287,0,326.003,0z"/>
			</g>
		</g>
		<g>
			<path style="fill:#A19D8D;" d="M191.003,205.553v-36.344c0-23.71,19.29-43,43-43h44c23.71,0,43,19.29,43,43v36.344H191.003z"/>
			<path style="fill:#696453;" d="M278.003,126.209h-22.009v79.344h65.009v-36.344C321.003,145.499,301.713,126.209,278.003,126.209     z"/>
		</g>
	</g>
	<g>
		<g>
			<path style="fill:#FFF566;" d="M255.999,512.005c-8.284,0-15-6.716-15-15v-40c0-8.284,6.716-15,15-15s15,6.716,15,15v40     C270.999,505.289,264.283,512.005,255.999,512.005z"/>
			<path style="fill:#FFD236;" d="M255.999,442.005c-0.002,0-0.003,0-0.005,0v69.999c0.002,0,0.003,0,0.005,0     c8.284,0,15-6.716,15-15v-40C270.999,448.721,264.283,442.005,255.999,442.005z"/>
		</g>
		<path style="fill:#FFD236;" d="M336.016,490.536c-5.185,0-10.226-2.69-13.005-7.504l-19.993-34.634    c-4.142-7.175-1.683-16.348,5.492-20.49c7.173-4.143,16.348-1.684,20.49,5.492l19.993,34.634    c4.142,7.175,1.683,16.348-5.492,20.49C341.14,489.888,338.56,490.536,336.016,490.536z"/>
		<path style="fill:#FFF566;" d="M175.98,490.536c-2.544,0-5.123-0.648-7.485-2.012c-7.175-4.143-9.633-13.315-5.492-20.49    l19.993-34.634c4.142-7.175,13.316-9.634,20.49-5.492c7.175,4.143,9.633,13.315,5.492,20.49l-19.993,34.634    C186.207,487.845,181.165,490.536,175.98,490.536z"/>
	</g>
</g>















</svg>
