<svg id="Capa_1" enable-background="new 0 0 512 512" height="512" viewBox="0 0 512 512" width="512" xmlns="http://www.w3.org/2000/svg"><path d="m256 512c26.791 0 48.509-21.718 48.509-48.509v-15.276l-68.525-20.016z" fill="#ff9f22"/><path d="m207.491 463.491c0 26.791 21.718 48.509 48.509 48.509v-83.801l-48.509 20.016z" fill="#ffda44"/><path d="m241 31.893h30v196.515h-30z" fill="#724435"/><path d="m309.155 267.489v-70.974h-53.155l-20.016 90.99z" fill="#87a0af"/><path d="m384 0h-128l-20.016 31.893 20.016 31.892h128z" fill="#b4d2d7"/><path d="m128 0h128v63.785h-128z" fill="#e1ebf0"/><path d="m202.845 267.489 53.155 20.016v-90.99h-53.155z" fill="#b4d2d7"/><path d="m458.845 417.18c0-82.672-67.019-149.691-149.691-149.691h-53.154l-20.016 96.178 20.016 84.548h202.845z" fill="#e1ebf0"/><path d="m202.845 267.489c-82.672 0-149.691 67.019-149.691 149.691v31.035h202.846v-180.726z" fill="#fff5f5"/></svg>