<svg id="Capa_1" enable-background="new 0 0 512 512" height="512" viewBox="0 0 512 512" width="512" xmlns="http://www.w3.org/2000/svg"><path d="m461.96 407.735c0-80.914-61.957-147.622-140.92-155.195v-67.54h-50.04v-94.952h120.5v-90.048h-271v90.048h120.5v94.952h-50.04v67.541c-78.963 7.573-140.92 74.281-140.92 155.195v44.217h145.309c.334 33.166 27.406 60.047 60.651 60.047s60.317-26.881 60.651-60.048h145.309zm-311.46-377.735h211v30.048h-211zm140.54 185v36.816h-70.08v-36.816zm-35.04 267c-16.703 0-30.32-13.424-30.651-30.048h61.303c-.332 16.624-13.949 30.048-30.652 30.048zm175.96-60.048h-351.92v-14.217c0-69.432 56.487-125.919 125.92-125.919h100.08c69.433 0 125.92 56.487 125.92 125.919z"/></svg>