<svg height="512pt" viewBox="0 -30 512 512" width="512pt" xmlns="http://www.w3.org/2000/svg"><path d="m494.792969 124.605469h-11v-64.6875c0-20.191407-16.429688-36.621094-36.621094-36.621094h-90.738281v-6.089844c0-9.488281-7.722656-17.207031-17.210938-17.207031h-103.367187c-4.140625 0-7.5 3.355469-7.5 7.5s3.359375 7.5 7.5 7.5h103.367187c1.21875 0 2.210938.988281 2.210938 2.207031v26.671875c0 1.21875-.992188 2.210938-2.210938 2.210938h-166.445312c-1.21875 0-2.210938-.992188-2.210938-2.210938v-26.671875c0-1.21875.992188-2.207031 2.210938-2.207031h28.136718c4.140626 0 7.5-3.355469 7.5-7.5s-3.359374-7.5-7.5-7.5h-28.136718c-9.488282 0-17.210938 7.71875-17.210938 17.207031v6.089844h-90.738281c-20.191406 0-36.621094 16.429687-36.621094 36.621094v64.6875h-11c-9.488281 0-17.207031 7.71875-17.207031 17.207031v292.816406c0 9.488282 7.71875 17.207032 17.207031 17.207032h400.984375c4.144532 0 7.5-3.355469 7.5-7.5 0-4.140626-3.355468-7.5-7.5-7.5h-16.390625l-60.648437-79.796876v-38.046874c0-8.238282-6.703125-14.941407-14.941406-14.941407h-140.441407c-.269531 0-.53125.027344-.792969.042969-.242187.011719-.484374.011719-.722656.035156-.25.027344-.488281.074219-.734375.113282-.246093.039062-.5.066406-.746093.113281-.195313.042969-.378907.101562-.570313.148437-.289063.070313-.582031.136719-.863281.222656-.113282.035157-.222656.085938-.332032.125-.351562.117188-.703124.238282-1.039062.378907-.023438.011719-.039062.023437-.0625.03125-5.320312 2.289062-9.058594 7.578125-9.058594 13.730469v38.042968l-60.648437 79.800782h-92.992188c-1.21875 0-2.207031-.988282-2.207031-2.207032v-234.308594h482v234.308594c0 1.21875-.988281 2.207032-2.207031 2.207032h-41.628907c-4.144531 0-7.5 3.359374-7.5 7.5 0 4.144531 3.355469 7.5 7.5 7.5h41.628907c9.488281 0 17.207031-7.71875 17.207031-17.207032v-292.816406c0-9.488281-7.71875-17.207031-17.207031-17.207031zm-171.53125 282.488281c-24.273438 0-44.019531-19.746094-44.019531-44.019531 0-24.273438 19.746093-44.019531 44.019531-44.023438l2.894531-.054687.011719 16.816406c-.964844-.105469-1.929688-.171875-2.902344-.171875-15.128906 0-27.433594 12.304687-27.433594 27.433594 0 15.128906 12.304688 27.433593 27.433594 27.433593.984375 0 1.964844-.066406 2.9375-.175781l.011719 16.761719zm2.894531-56.105469v24.171875c-.945312.230469-1.917969.347656-2.894531.347656-6.851563 0-12.433594-5.578124-12.433594-12.433593 0-6.859375 5.578125-12.433594 12.433594-12.433594.976562 0 1.949219.117187 2.894531.347656zm-42.101562-31.976562c-12.144532 10.816406-19.8125 26.558593-19.8125 44.0625 0 17.488281 7.65625 33.21875 19.78125 44.039062l-56.082032.023438c12.140625-10.820313 19.808594-26.558594 19.808594-44.0625 0-17.492188-7.65625-33.222657-19.78125-44.039063zm-98.21875 71.324219c.960937.105468 1.921874.171874 2.894531.171874 15.125 0 27.433593-12.308593 27.433593-27.433593 0-15.128907-12.308593-27.433594-27.433593-27.433594-.984375 0-1.960938.066406-2.929688.171875l-.011719-16.761719h2.121094c.171875.011719.34375.015625.507813.011719l.359375-.011719c24.253906.027344 43.972656 19.765625 43.972656 44.023438 0 24.273437-19.746094 44.019531-43.984375 44.019531l-.347656-.007812c-.242188-.011719-.488281.003906-.730469.023437l-1.839844.042969zm.011718-15.171876v-24.179687c.941406-.230469 1.910156-.34375 2.882813-.34375 6.855469 0 12.433593 5.574219 12.433593 12.433594 0 6.855469-5.578124 12.433593-12.433593 12.433593-.972657 0-1.941407-.117187-2.882813-.34375zm-15 6.660157v25.328125c0 8.238281 6.703125 14.941406 14.941406 14.941406h2.523438.070312 134.84375.035157 2.949219c8.238281 0 14.941406-6.703125 14.941406-14.941406v-25.324219l41.808594 55.007813h-253.925782zm-127.640625-321.90625c0-11.921875 9.699219-21.621094 21.621094-21.621094h90.738281v5.582031c0 9.488282 7.722656 17.207032 17.210938 17.207032h166.445312c9.488282 0 17.207032-7.71875 17.207032-17.207032v-5.582031h90.742187c11.921875 0 21.621094 9.699219 21.621094 21.621094v64.6875h-17.695313v-8.816407c0-9.488281-7.71875-17.207031-17.203125-17.207031h-3.636719v-16.535156h.265626c4.140624 0 7.5-3.359375 7.5-7.5 0-4.144531-3.359376-7.5-7.5-7.5h-15.53125c-4.144532 0-7.5 3.355469-7.5 7.5 0 4.140625 3.355468 7.5 7.5 7.5h.265624v16.535156h-3.636718c-9.488282 0-17.207032 7.71875-17.207032 17.207031v8.816407h-139.191406v-8.816407c0-9.488281-7.71875-17.207031-17.207031-17.207031h-22.273437c-9.484376 0-17.203126 7.71875-17.203126 17.207031v8.816407h-11.265624v-8.816407c0-9.488281-7.71875-17.207031-17.207032-17.207031h-22.269531c-9.488281 0-17.207031 7.71875-17.207031 17.207031v8.816407h-11.265625v-8.816407c0-9.488281-7.71875-17.207031-17.207031-17.207031h-22.273438c-9.488281 0-17.207031 7.71875-17.207031 17.207031v8.816407h-19.429688zm366.207031 64.6875v-8.816407c0-1.21875.992188-2.207031 2.207032-2.207031h22.273437c1.214844 0 2.207031.988281 2.207031 2.207031v8.816407zm-195.878906 0v-8.816407c0-1.21875.992188-2.207031 2.207032-2.207031h22.273437c1.214844 0 2.207031.988281 2.207031 2.207031v8.816407zm-67.949218 0v-8.816407c0-1.21875.992187-2.207031 2.207031-2.207031h22.273437c1.214844 0 2.207032.988281 2.207032 2.207031v8.816407zm-67.949219 0v-8.816407c0-1.21875.992187-2.207031 2.207031-2.207031h22.273438c1.214843 0 2.207031.988281 2.207031 2.207031v8.816407zm-62.636719 17.207031c0-1.214844.988281-2.207031 2.207031-2.207031h477.585938c1.21875 0 2.207031.992187 2.207031 2.207031v43.507812h-482zm0 0"/><path d="m169.859375 154.964844h-21.863281c-4.140625 0-7.5 3.355468-7.5 7.5 0 4.140625 3.359375 7.5 7.5 7.5h21.863281c4.144531 0 7.5-3.359375 7.5-7.5 0-4.144532-3.355469-7.5-7.5-7.5zm0 0"/><path d="m218.398438 154.964844h-21.867188c-4.140625 0-7.5 3.355468-7.5 7.5 0 4.140625 3.359375 7.5 7.5 7.5h21.867188c4.140624 0 7.5-3.359375 7.5-7.5 0-4.144532-3.359376-7.5-7.5-7.5zm0 0"/><path d="m266.933594 154.964844h-21.867188c-4.140625 0-7.5 3.355468-7.5 7.5 0 4.140625 3.359375 7.5 7.5 7.5h21.867188c4.140625 0 7.496094-3.359375 7.496094-7.5 0-4.144532-3.355469-7.5-7.496094-7.5zm0 0"/><path d="m315.46875 154.964844h-21.867188c-4.140624 0-7.5 3.355468-7.5 7.5 0 4.140625 3.359376 7.5 7.5 7.5h21.867188c4.140625 0 7.5-3.359375 7.5-7.5 0-4.144532-3.359375-7.5-7.5-7.5zm0 0"/><path d="m364.003906 154.964844h-21.863281c-4.144531 0-7.5 3.355468-7.5 7.5 0 4.140625 3.355469 7.5 7.5 7.5h21.863281c4.140625 0 7.5-3.359375 7.5-7.5 0-4.144532-3.359375-7.5-7.5-7.5zm0 0"/><path d="m24.597656 309.085938c0 36.253906 29.492188 65.742187 65.742188 65.742187s65.742187-29.488281 65.742187-65.742187c0-36.25-29.492187-65.742188-65.742187-65.742188s-65.742188 29.492188-65.742188 65.742188zm116.484375 0c0 27.980468-22.765625 50.742187-50.742187 50.742187-27.980469 0-50.742188-22.761719-50.742188-50.742187 0-27.976563 22.761719-50.742188 50.742188-50.742188 27.976562 0 50.742187 22.761719 50.742187 50.742188zm0 0"/><path d="m63.425781 309.085938c0 14.84375 12.074219 26.914062 26.914063 26.914062s26.914062-12.070312 26.914062-26.914062c0-14.839844-12.074218-26.914063-26.914062-26.914063s-26.914063 12.074219-26.914063 26.914063zm38.828125 0c0 6.570312-5.347656 11.914062-11.914062 11.914062-6.570313 0-11.914063-5.34375-11.914063-11.914062 0-6.566407 5.34375-11.914063 11.914063-11.914063 6.566406 0 11.914062 5.34375 11.914062 11.914063zm0 0"/><path d="m487.402344 309.085938c0-36.25-29.492188-65.742188-65.742188-65.742188s-65.742187 29.492188-65.742187 65.742188c0 36.253906 29.492187 65.742187 65.742187 65.742187s65.742188-29.488281 65.742188-65.742187zm-65.742188 50.742187c-27.976562 0-50.742187-22.761719-50.742187-50.742187 0-27.976563 22.765625-50.742188 50.742187-50.742188 27.980469 0 50.742188 22.765625 50.742188 50.742188 0 27.980468-22.761719 50.742187-50.742188 50.742187zm0 0"/><path d="m421.660156 282.171875c-14.839844 0-26.914062 12.074219-26.914062 26.914063 0 14.84375 12.074218 26.914062 26.914062 26.914062s26.914063-12.070312 26.914063-26.914062c0-14.839844-12.074219-26.914063-26.914063-26.914063zm0 38.828125c-6.566406 0-11.914062-5.34375-11.914062-11.914062 0-6.566407 5.347656-11.914063 11.914062-11.914063 6.570313 0 11.914063 5.347656 11.914063 11.914063 0 6.570312-5.34375 11.914062-11.914063 11.914062zm0 0"/><path d="m208.496094 215.0625c-9.644532 0-17.492188 7.847656-17.492188 17.492188v42.738281c0 9.644531 7.847656 17.488281 17.492188 17.488281h95.007812c9.644532 0 17.492188-7.84375 17.492188-17.488281v-42.738281c0-9.648438-7.847656-17.492188-17.492188-17.492188zm95.007812 62.722656h-95.007812c-1.375 0-2.492188-1.117187-2.492188-2.492187v-13.867188h10.390625v1.644531c0 4.144532 3.355469 7.5 7.5 7.5s7.5-3.355468 7.5-7.5v-1.644531h17.105469v1.644531c0 4.144532 3.359375 7.5 7.5 7.5 4.144531 0 7.5-3.355468 7.5-7.5v-1.644531h17.109375v1.644531c0 4.144532 3.355469 7.5 7.5 7.5 4.140625 0 7.5-3.355468 7.5-7.5v-1.644531h10.386719v13.867188c0 1.375-1.117188 2.492187-2.492188 2.492187zm2.492188-45.230468v13.871093h-10.386719v-1.472656c0-4.144531-3.359375-7.5-7.5-7.5-4.144531 0-7.5 3.355469-7.5 7.5v1.472656h-17.109375v-1.472656c0-4.144531-3.355469-7.5-7.5-7.5-4.140625 0-7.5 3.355469-7.5 7.5v1.472656h-17.105469v-1.472656c0-4.144531-3.355469-7.5-7.5-7.5s-7.5 3.355469-7.5 7.5v1.472656h-10.390625v-13.871093c0-1.375 1.117188-2.492188 2.492188-2.492188h95.007812c1.375 0 2.492188 1.117188 2.492188 2.492188zm0 0"/></svg>