<svg height="512pt" viewBox="0 -30 512 512" width="512pt" xmlns="http://www.w3.org/2000/svg"><path d="m339.222656 53.585938h-166.445312c-5.363282 0-9.707032-4.34375-9.707032-9.707032v-26.671875c0-5.359375 4.34375-9.707031 9.707032-9.707031h166.445312c5.363282 0 9.707032 4.347656 9.707032 9.707031v26.671875c0 5.363282-4.34375 9.707032-9.707032 9.707032zm0 0" fill="#d1c0c7"/><path d="m339.222656 7.5h-38.828125c5.363281 0 9.707031 4.347656 9.707031 9.707031v26.671875c0 5.363282-4.34375 9.707032-9.707031 9.707032h38.828125c5.363282 0 9.707032-4.34375 9.707032-9.707032v-26.671875c0-5.359375-4.34375-9.707031-9.707032-9.707031zm0 0" fill="#beadb5"/><path d="m433.904701 136.166518h-22.27396c-5.3595 0-9.707259 4.343851-9.707259 9.707258v31.977312h41.684571v-31.977312c0-5.363407-4.343852-9.707258-9.703352-9.707258zm0 0" fill="#84606f" stroke="#607882" stroke-miterlimit="10" transform="matrix(.999977 0 0 .999977 0 -30.081295)"/><path d="m433.894531 106.082031h-19.417969c5.363282 0 9.707032 4.34375 9.707032 9.707031v31.976563h19.414062v-31.976563c0-5.363281-4.34375-9.707031-9.703125-9.707031zm0 0" fill="#74505d"/><path d="m102.119581 136.166518h-22.27396c-5.3595 0-9.707258 4.343851-9.707258 9.707258v31.977312h41.688477v-31.977312c0-5.363407-4.347759-9.707258-9.707259-9.707258zm0 0" fill="#84606f" stroke="#607882" stroke-miterlimit="10" transform="matrix(.999977 0 0 .999977 0 -30.081295)"/><path d="m102.117188 106.082031h-19.414063c5.359375 0 9.707031 4.34375 9.707031 9.707031v31.976563h19.414063v-31.976563c0-5.363281-4.347657-9.707031-9.707031-9.707031zm0 0" fill="#74505d"/><path d="m170.066406 106.082031h-22.273437c-5.359375 0-9.707031 4.34375-9.707031 9.707031v31.976563h41.6875v-31.976563c0-5.363281-4.347657-9.707031-9.707032-9.707031zm0 0" fill="#84606f"/><path d="m170.066406 106.082031h-19.414062c5.359375 0 9.703125 4.34375 9.703125 9.707031v31.976563h19.417969v-31.976563c0-5.363281-4.347657-9.707031-9.707032-9.707031zm0 0" fill="#74505d"/><path d="m238.015625 106.082031h-22.273437c-5.359376 0-9.707032 4.34375-9.707032 9.707031v31.976563h41.6875v-31.976563c0-5.363281-4.347656-9.707031-9.707031-9.707031zm0 0" fill="#e5646e"/><path d="m238.015625 106.082031h-19.414063c5.359376 0 9.707032 4.34375 9.707032 9.707031v31.976563h19.414062v-31.976563c0-5.363281-4.347656-9.707031-9.707031-9.707031zm0 0" fill="#da2f3c"/><path d="m17.207031 132.105469h477.585938c5.359375 0 9.707031 4.347656 9.707031 9.707031v51.007812h-497v-51.003906c0-5.363281 4.347656-9.710937 9.707031-9.710937zm0 0" fill="#d1c0c7"/><path d="m494.792969 132.105469h-38.828125c5.359375 0 9.707031 4.347656 9.707031 9.707031v51.007812h38.828125v-51.003906c0-5.363281-4.347656-9.710937-9.707031-9.710937zm0 0" fill="#beadb5"/><path d="m7.5 192.820312h497v241.808594c0 5.363282-4.347656 9.707032-9.707031 9.707032h-477.585938c-5.359375 0-9.707031-4.34375-9.707031-9.707032zm0 0" fill="#e5646e"/><path d="m465.671875 192.820312v241.808594c0 5.363282-4.34375 9.707032-9.707031 9.707032h38.828125c5.359375 0 9.707031-4.34375 9.707031-9.707032v-241.808594zm0 0" fill="#da2f3c"/><path d="m7.5 185.539062h497v14.5625h-497zm0 0" fill="#74505d"/><path d="m465.671875 185.539062h38.828125v14.5625h-38.828125zm0 0" fill="#673c4e"/><path d="m148.582031 309.085938c0 32.167968-26.078125 58.242187-58.242187 58.242187-32.167969 0-58.242188-26.074219-58.242188-58.242187 0-32.164063 26.074219-58.242188 58.242188-58.242188 32.164062 0 58.242187 26.078125 58.242187 58.242188zm0 0" fill="#d1c0c7"/><path d="m90.339844 250.84375c-6.808594 0-13.339844 1.179688-19.414063 3.328125 22.617188 7.996094 38.828125 29.558594 38.828125 54.914063 0 25.359374-16.210937 46.917968-38.828125 54.914062 6.074219 2.148438 12.605469 3.328125 19.414063 3.328125 32.164062 0 58.242187-26.074219 58.242187-58.242187 0-32.164063-26.078125-58.242188-58.242187-58.242188zm0 0" fill="#beadb5"/><path d="m109.756479 339.175182c0 10.722907-8.69161 19.414517-19.414518 19.414517-10.722907 0-19.414517-8.69161-19.414517-19.414517 0-10.722908 8.69161-19.414518 19.414517-19.414518 10.722908 0 19.414518 8.69161 19.414518 19.414518zm0 0" fill="#84606f" stroke="#607882" stroke-miterlimit="10" transform="matrix(.999977 0 0 .999977 0 -30.081295)"/><path d="m479.902344 309.085938c0 32.167968-26.074219 58.242187-58.242188 58.242187-32.164062 0-58.242187-26.074219-58.242187-58.242187 0-32.164063 26.078125-58.242188 58.242187-58.242188 32.167969 0 58.242188 26.078125 58.242188 58.242188zm0 0" fill="#d1c0c7"/><path d="m421.660156 250.84375c-6.808594 0-13.339844 1.179688-19.414062 3.328125 22.617187 7.996094 38.828125 29.558594 38.828125 54.914063 0 25.355468-16.210938 46.917968-38.828125 54.914062 6.074218 2.148438 12.605468 3.328125 19.414062 3.328125 32.167969 0 58.242188-26.074219 58.242188-58.242187 0-32.164063-26.074219-58.242188-58.242188-58.242188zm0 0" fill="#beadb5"/><path d="m441.084556 339.175182c0 10.722907-8.69161 19.414517-19.414517 19.414517-10.722908 0-19.414518-8.69161-19.414518-19.414517 0-10.722908 8.69161-19.414518 19.414518-19.414518 10.722907 0 19.414517 8.69161 19.414517 19.414518zm0 0" fill="#84606f" stroke="#607882" stroke-miterlimit="10" transform="matrix(.999977 0 0 .999977 0 -30.081295)"/><path d="m398.082031 444.335938-64.425781-84.765626h-155.3125l-64.425781 84.765626zm0 0" fill="#2bd9f8"/><path d="m333.65625 359.570312h-38.828125l64.425781 84.765626h38.828125zm0 0" fill="#40c1fa"/><path d="m326.210938 414.59375h-140.421876c-4.109374 0-7.441406-3.332031-7.441406-7.441406v-88.160156c0-4.109376 3.332032-7.441407 7.441406-7.441407h140.421876c4.109374 0 7.441406 3.332031 7.441406 7.441407v88.160156c0 4.109375-3.332032 7.441406-7.441406 7.441406zm0 0" fill="#d1c0c7"/><path d="m188.730469 311.550781c-.140625 0-.277344.011719-.417969.011719v-.011719h-2.535156c-4.105469.007813-7.429688 3.335938-7.429688 7.441407v88.160156c0 4.109375 3.332032 7.441406 7.441406 7.441406h2.527344v-.011719c.136719.003907.273438.011719.414063.011719 28.453125 0 51.523437-23.066406 51.523437-51.519531 0-28.457031-23.070312-51.523438-51.523437-51.523438zm0 0" fill="#74505d"/><path d="m188.730469 311.550781c-.140625 0-.277344.011719-.417969.011719v-.011719h-2.535156c-1.5.003907-2.894532.453125-4.0625 1.21875 23.105468 5.089844 40.398437 25.671875 40.398437 50.304688 0 24.632812-17.292969 45.214843-40.398437 50.304687 1.171875.765625 2.570312 1.214844 4.074218 1.214844h2.527344v-.007812c.136719 0 .273438.007812.414063.007812 28.453125 0 51.523437-23.066406 51.523437-51.519531s-23.070312-51.523438-51.523437-51.523438zm0 0" fill="#673c4e"/><path d="m188.730469 343.140625c-3.808594 0-7.355469 1.085937-10.382813 2.9375v33.988281c3.027344 1.851563 6.574219 2.941406 10.382813 2.941406 11.007812 0 19.933593-8.925781 19.933593-19.933593 0-11.011719-8.925781-19.933594-19.933593-19.933594zm0 0" fill="#d1c0c7"/><path d="m188.730469 343.140625c-1.988281 0-3.898438.300781-5.703125.84375 8.210937 2.464844 14.195312 10.074219 14.195312 19.089844 0 9.011719-5.984375 16.621093-14.195312 19.085937 1.804687.542969 3.71875.847656 5.703125.847656 11.007812 0 19.933593-8.925781 19.933593-19.933593 0-11.011719-8.925781-19.933594-19.933593-19.933594zm0 0" fill="#beadb5"/><path d="m326.210938 414.59375c4.109374 0 7.441406-3.332031 7.441406-7.441406v-88.160156c0-4.109376-3.332032-7.441407-7.441406-7.441407h-2.945313c-28.457031 0-51.523437 23.066407-51.523437 51.523438 0 28.453125 23.066406 51.519531 51.523437 51.519531zm0 0" fill="#74505d"/><path d="m326.210938 311.550781h-2.945313c-2.875 0-5.6875.246094-8.433594.699219 2.542969 1.183594 4.308594 3.753906 4.308594 6.742188v88.160156c0 2.988281-1.765625 5.558594-4.308594 6.742187 2.746094.453125 5.558594.699219 8.433594.699219h2.945313c4.109374 0 7.441406-3.332031 7.441406-7.441406v-88.160156c0-4.109376-3.332032-7.441407-7.441406-7.441407zm0 0" fill="#673c4e"/><path d="m333.652344 346.085938c-3.027344-1.855469-6.574219-2.945313-10.386719-2.945313-11.011719 0-19.933594 8.921875-19.933594 19.933594 0 11.007812 8.921875 19.933593 19.933594 19.933593 3.8125 0 7.359375-1.089843 10.386719-2.945312zm0 0" fill="#d1c0c7"/><path d="m333.652344 346.085938c-3.027344-1.855469-6.574219-2.945313-10.386719-2.945313-11.011719 0-19.933594 8.921875-19.933594 19.933594 0 11.007812 8.921875 19.933593 19.933594 19.933593 3.8125 0 7.359375-1.089843 10.386719-2.945312zm0 0" fill="#d1c0c7"/><path d="m303.503906 285.285156h-95.007812c-5.519532 0-9.992188-4.472656-9.992188-9.992187v-42.742188c0-5.515625 4.472656-9.988281 9.992188-9.988281h95.007812c5.519532 0 9.992188 4.472656 9.992188 9.988281v42.742188c0 5.519531-4.472656 9.992187-9.992188 9.992187zm0 0" fill="#84606f"/><path d="m303.503906 222.5625h-39.964844c5.515626 0 9.992188 4.472656 9.992188 9.992188v42.738281c0 5.519531-4.472656 9.992187-9.992188 9.992187h39.964844c5.519532 0 9.992188-4.472656 9.992188-9.992187v-42.738281c0-5.519532-4.472656-9.992188-9.992188-9.992188zm0 0" fill="#74505d"/><path d="m319.140625 343.570312v39.003907c1.332031.28125 2.710937.433593 4.125.433593 3.8125 0 7.359375-1.089843 10.386719-2.945312v-33.976562c-3.027344-1.855469-6.574219-2.945313-10.386719-2.945313-1.414063 0-2.792969.148437-4.125.429687zm0 0" fill="#beadb5"/><path d="m494.792969 124.605469h-11v-64.6875c0-20.191407-16.429688-36.621094-36.621094-36.621094h-90.738281v-6.089844c0-9.488281-7.722656-17.207031-17.210938-17.207031h-103.367187c-4.140625 0-7.5 3.355469-7.5 7.5s3.359375 7.5 7.5 7.5h103.367187c1.21875 0 2.210938.988281 2.210938 2.207031v26.671875c0 1.21875-.992188 2.210938-2.210938 2.210938h-166.445312c-1.21875 0-2.210938-.992188-2.210938-2.210938v-26.671875c0-1.21875.992188-2.207031 2.210938-2.207031h28.136718c4.140626 0 7.5-3.355469 7.5-7.5s-3.359374-7.5-7.5-7.5h-28.136718c-9.488282 0-17.210938 7.71875-17.210938 17.207031v6.089844h-90.738281c-20.191406 0-36.621094 16.429687-36.621094 36.621094v64.6875h-11c-9.488281 0-17.207031 7.71875-17.207031 17.207031v292.816406c0 9.488282 7.71875 17.207032 17.207031 17.207032h400.984375c4.144532 0 7.5-3.355469 7.5-7.5 0-4.140626-3.355468-7.5-7.5-7.5h-16.390625l-60.648437-79.796876v-38.046874c0-8.238282-6.703125-14.941407-14.941406-14.941407h-140.441407c-.269531 0-.53125.027344-.792969.042969-.242187.011719-.484374.011719-.722656.035156-.25.027344-.488281.074219-.734375.113282-.246093.039062-.5.066406-.746093.113281-.195313.042969-.378907.101562-.570313.148437-.289063.070313-.582031.136719-.863281.222656-.113282.035157-.222656.085938-.332032.125-.351562.117188-.703124.238282-1.039062.378907-.023438.011719-.039062.023437-.0625.03125-5.320312 2.289062-9.058594 7.578125-9.058594 13.730469v38.042968l-60.648437 79.800782h-92.992188c-1.21875 0-2.207031-.988282-2.207031-2.207032v-234.308594h482v234.308594c0 1.21875-.988281 2.207032-2.207031 2.207032h-41.628907c-4.144531 0-7.5 3.359374-7.5 7.5 0 4.144531 3.355469 7.5 7.5 7.5h41.628907c9.488281 0 17.207031-7.71875 17.207031-17.207032v-292.816406c0-9.488281-7.71875-17.207031-17.207031-17.207031zm-171.53125 282.488281c-24.273438 0-44.019531-19.746094-44.019531-44.019531 0-24.273438 19.746093-44.019531 44.019531-44.023438l2.894531-.054687.011719 16.816406c-.964844-.105469-1.929688-.171875-2.902344-.171875-15.128906 0-27.433594 12.304687-27.433594 27.433594 0 15.128906 12.304688 27.433593 27.433594 27.433593.984375 0 1.964844-.066406 2.9375-.175781l.011719 16.761719zm2.894531-56.105469v24.171875c-.945312.230469-1.917969.347656-2.894531.347656-6.851563 0-12.433594-5.578124-12.433594-12.433593 0-6.859375 5.578125-12.433594 12.433594-12.433594.976562 0 1.949219.117187 2.894531.347656zm-42.101562-31.976562c-12.144532 10.816406-19.8125 26.558593-19.8125 44.0625 0 17.488281 7.65625 33.21875 19.78125 44.039062l-56.082032.023438c12.140625-10.820313 19.808594-26.558594 19.808594-44.0625 0-17.492188-7.65625-33.222657-19.78125-44.039063zm-98.21875 71.324219c.960937.105468 1.921874.171874 2.894531.171874 15.125 0 27.433593-12.308593 27.433593-27.433593 0-15.128907-12.308593-27.433594-27.433593-27.433594-.984375 0-1.960938.066406-2.929688.171875l-.011719-16.761719h2.121094c.171875.011719.34375.015625.507813.011719l.359375-.011719c24.253906.027344 43.972656 19.765625 43.972656 44.023438 0 24.273437-19.746094 44.019531-43.984375 44.019531l-.347656-.007812c-.242188-.011719-.488281.003906-.730469.023437l-1.839844.042969zm.011718-15.171876v-24.179687c.941406-.230469 1.910156-.34375 2.882813-.34375 6.855469 0 12.433593 5.574219 12.433593 12.433594 0 6.855469-5.578124 12.433593-12.433593 12.433593-.972657 0-1.941407-.117187-2.882813-.34375zm-15 6.660157v25.328125c0 8.238281 6.703125 14.941406 14.941406 14.941406h2.523438.070312 134.84375.035157 2.949219c8.238281 0 14.941406-6.703125 14.941406-14.941406v-25.324219l41.808594 55.007813h-253.925782zm-127.640625-321.90625c0-11.921875 9.699219-21.621094 21.621094-21.621094h90.738281v5.582031c0 9.488282 7.722656 17.207032 17.210938 17.207032h166.445312c9.488282 0 17.207032-7.71875 17.207032-17.207032v-5.582031h90.742187c11.921875 0 21.621094 9.699219 21.621094 21.621094v64.6875h-17.695313v-8.816407c0-9.488281-7.71875-17.207031-17.203125-17.207031h-3.636719v-16.535156h.265626c4.140624 0 7.5-3.359375 7.5-7.5 0-4.144531-3.359376-7.5-7.5-7.5h-15.53125c-4.144532 0-7.5 3.355469-7.5 7.5 0 4.140625 3.355468 7.5 7.5 7.5h.265624v16.535156h-3.636718c-9.488282 0-17.207032 7.71875-17.207032 17.207031v8.816407h-139.191406v-8.816407c0-9.488281-7.71875-17.207031-17.207031-17.207031h-22.273437c-9.484376 0-17.203126 7.71875-17.203126 17.207031v8.816407h-11.265624v-8.816407c0-9.488281-7.71875-17.207031-17.207032-17.207031h-22.269531c-9.488281 0-17.207031 7.71875-17.207031 17.207031v8.816407h-11.265625v-8.816407c0-9.488281-7.71875-17.207031-17.207031-17.207031h-22.273438c-9.488281 0-17.207031 7.71875-17.207031 17.207031v8.816407h-19.429688zm366.207031 64.6875v-8.816407c0-1.21875.992188-2.207031 2.207032-2.207031h22.273437c1.214844 0 2.207031.988281 2.207031 2.207031v8.816407zm-195.878906 0v-8.816407c0-1.21875.992188-2.207031 2.207032-2.207031h22.273437c1.214844 0 2.207031.988281 2.207031 2.207031v8.816407zm-67.949218 0v-8.816407c0-1.21875.992187-2.207031 2.207031-2.207031h22.273437c1.214844 0 2.207032.988281 2.207032 2.207031v8.816407zm-67.949219 0v-8.816407c0-1.21875.992187-2.207031 2.207031-2.207031h22.273438c1.214843 0 2.207031.988281 2.207031 2.207031v8.816407zm-62.636719 17.207031c0-1.214844.988281-2.207031 2.207031-2.207031h477.585938c1.21875 0 2.207031.992187 2.207031 2.207031v43.507812h-482zm0 0"/><path d="m169.859375 154.964844h-21.863281c-4.140625 0-7.5 3.355468-7.5 7.5 0 4.140625 3.359375 7.5 7.5 7.5h21.863281c4.144531 0 7.5-3.359375 7.5-7.5 0-4.144532-3.355469-7.5-7.5-7.5zm0 0"/><path d="m218.398438 154.964844h-21.867188c-4.140625 0-7.5 3.355468-7.5 7.5 0 4.140625 3.359375 7.5 7.5 7.5h21.867188c4.140624 0 7.5-3.359375 7.5-7.5 0-4.144532-3.359376-7.5-7.5-7.5zm0 0"/><path d="m266.933594 154.964844h-21.867188c-4.140625 0-7.5 3.355468-7.5 7.5 0 4.140625 3.359375 7.5 7.5 7.5h21.867188c4.140625 0 7.496094-3.359375 7.496094-7.5 0-4.144532-3.355469-7.5-7.496094-7.5zm0 0"/><path d="m315.46875 154.964844h-21.867188c-4.140624 0-7.5 3.355468-7.5 7.5 0 4.140625 3.359376 7.5 7.5 7.5h21.867188c4.140625 0 7.5-3.359375 7.5-7.5 0-4.144532-3.359375-7.5-7.5-7.5zm0 0"/><path d="m364.003906 154.964844h-21.863281c-4.144531 0-7.5 3.355468-7.5 7.5 0 4.140625 3.355469 7.5 7.5 7.5h21.863281c4.140625 0 7.5-3.359375 7.5-7.5 0-4.144532-3.359375-7.5-7.5-7.5zm0 0"/><path d="m24.597656 309.085938c0 36.253906 29.492188 65.742187 65.742188 65.742187s65.742187-29.488281 65.742187-65.742187c0-36.25-29.492187-65.742188-65.742187-65.742188s-65.742188 29.492188-65.742188 65.742188zm116.484375 0c0 27.980468-22.765625 50.742187-50.742187 50.742187-27.980469 0-50.742188-22.761719-50.742188-50.742187 0-27.976563 22.761719-50.742188 50.742188-50.742188 27.976562 0 50.742187 22.761719 50.742187 50.742188zm0 0"/><path d="m63.425781 309.085938c0 14.84375 12.074219 26.914062 26.914063 26.914062s26.914062-12.070312 26.914062-26.914062c0-14.839844-12.074218-26.914063-26.914062-26.914063s-26.914063 12.074219-26.914063 26.914063zm38.828125 0c0 6.570312-5.347656 11.914062-11.914062 11.914062-6.570313 0-11.914063-5.34375-11.914063-11.914062 0-6.566407 5.34375-11.914063 11.914063-11.914063 6.566406 0 11.914062 5.34375 11.914062 11.914063zm0 0"/><path d="m487.402344 309.085938c0-36.25-29.492188-65.742188-65.742188-65.742188s-65.742187 29.492188-65.742187 65.742188c0 36.253906 29.492187 65.742187 65.742187 65.742187s65.742188-29.488281 65.742188-65.742187zm-65.742188 50.742187c-27.976562 0-50.742187-22.761719-50.742187-50.742187 0-27.976563 22.765625-50.742188 50.742187-50.742188 27.980469 0 50.742188 22.765625 50.742188 50.742188 0 27.980468-22.761719 50.742187-50.742188 50.742187zm0 0"/><path d="m421.660156 282.171875c-14.839844 0-26.914062 12.074219-26.914062 26.914063 0 14.84375 12.074218 26.914062 26.914062 26.914062s26.914063-12.070312 26.914063-26.914062c0-14.839844-12.074219-26.914063-26.914063-26.914063zm0 38.828125c-6.566406 0-11.914062-5.34375-11.914062-11.914062 0-6.566407 5.347656-11.914063 11.914062-11.914063 6.570313 0 11.914063 5.347656 11.914063 11.914063 0 6.570312-5.34375 11.914062-11.914063 11.914062zm0 0"/><path d="m208.496094 215.0625c-9.644532 0-17.492188 7.847656-17.492188 17.492188v42.738281c0 9.644531 7.847656 17.488281 17.492188 17.488281h95.007812c9.644532 0 17.492188-7.84375 17.492188-17.488281v-42.738281c0-9.648438-7.847656-17.492188-17.492188-17.492188zm95.007812 62.722656h-95.007812c-1.375 0-2.492188-1.117187-2.492188-2.492187v-13.867188h10.390625v1.644531c0 4.144532 3.355469 7.5 7.5 7.5s7.5-3.355468 7.5-7.5v-1.644531h17.105469v1.644531c0 4.144532 3.359375 7.5 7.5 7.5 4.144531 0 7.5-3.355468 7.5-7.5v-1.644531h17.109375v1.644531c0 4.144532 3.355469 7.5 7.5 7.5 4.140625 0 7.5-3.355468 7.5-7.5v-1.644531h10.386719v13.867188c0 1.375-1.117188 2.492187-2.492188 2.492187zm2.492188-45.230468v13.871093h-10.386719v-1.472656c0-4.144531-3.359375-7.5-7.5-7.5-4.144531 0-7.5 3.355469-7.5 7.5v1.472656h-17.109375v-1.472656c0-4.144531-3.355469-7.5-7.5-7.5-4.140625 0-7.5 3.355469-7.5 7.5v1.472656h-17.105469v-1.472656c0-4.144531-3.355469-7.5-7.5-7.5s-7.5 3.355469-7.5 7.5v1.472656h-10.390625v-13.871093c0-1.375 1.117188-2.492188 2.492188-2.492188h95.007812c1.375 0 2.492188 1.117188 2.492188 2.492188zm0 0"/></svg>