<svg height="512" viewBox="0 0 64 64" width="512" xmlns="http://www.w3.org/2000/svg"><path d="m60 19h-3v-5.5a4.5 4.5 0 0 0 -8.238-2.5h-37.762a3.015 3.015 0 0 0 -3 3 3 3 0 0 0 3 3h37v2h-44a2 2 0 0 0 -2 2v34a2 2 0 0 0 2 2h3v2a1 1 0 0 0 1 1h6a1 1 0 0 0 1-1v-2h34v2a1 1 0 0 0 1 1h6a1 1 0 0 0 1-1v-2h3a2 2 0 0 0 2-2v-34a2 2 0 0 0 -2-2zm-49-4a1 1 0 0 1 -1-1 .978.978 0 0 1 .306-.713.965.965 0 0 1 .694-.287h37.051a4.342 4.342 0 0 0 -.051.5v1.5zm39-1.5a2.5 2.5 0 0 1 5 0v5.5h-5zm-37 44.5h-4v-1h4zm42 0h-4v-1h4zm-51-3v-34h56v34z"/><path d="m54 24h-44a3 3 0 0 0 -3 3v7a3 3 0 0 0 3 3h44a3 3 0 0 0 3-3v-7a3 3 0 0 0 -3-3zm1 10a1 1 0 0 1 -1 1h-1v-3h-2v3h-8v-3h-2v3h-8v-3h-2v3h-8v-3h-2v3h-8v-3h-2v3h-1a1 1 0 0 1 -1-1v-7a1 1 0 0 1 1-1h44a1 1 0 0 1 1 1z"/><path d="m47 39a7 7 0 1 0 7 7 7.008 7.008 0 0 0 -7-7zm0 12a5 5 0 0 1 -1-9.9v1.9h2v-1.9a5 5 0 0 1 -1 9.9z"/><path d="m14 39h6v2h-6z"/><path d="m14 51h6v2h-6z"/><path d="m11 42h12v2h-12z"/><path d="m11 48h12v2h-12z"/><path d="m8 45h18v2h-18z"/></svg>