<?xml version="1.0"?>
<svg xmlns="http://www.w3.org/2000/svg" viewBox="0 0 64 64" width="512" height="512"><g id="Mini_van" data-name="Mini van"><path d="M47,38a3,3,0,1,0,3,3A3,3,0,0,0,47,38Zm0,4a1,1,0,1,1,1-1A1,1,0,0,1,47,42Z"/><path d="M15,38a3,3,0,1,0,3,3A3,3,0,0,0,15,38Zm0,4a1,1,0,1,1,1-1A1,1,0,0,1,15,42Z"/><path d="M18,29H41a1,1,0,0,0,1-1V22a1,1,0,0,0-1-1H18a1,1,0,0,0-1,1v6A1,1,0,0,0,18,29Zm22-6v4H31V23ZM19,23H29v4H19Z"/><path d="M58,45H51.46a5.979,5.979,0,0,0,1.45-3H55a3,3,0,0,0,3-3V28a1,1,0,0,0-.072-.359,1.1,1.1,0,0,0-.064-.116,1.025,1.025,0,0,0-.08-.145l-6.519-8.241A2.981,2.981,0,0,0,48.912,18H10a5,5,0,0,0-4.673,3.27A.989.989,0,0,0,5,22V39a3,3,0,0,0,3,3H9.09a5.979,5.979,0,0,0,1.45,3H2a1,1,0,0,0,0,2H58a1,1,0,0,0,0-2ZM20.91,42H41.09a5.979,5.979,0,0,0,1.45,3H19.46A5.979,5.979,0,0,0,20.91,42ZM43,41a4,4,0,1,1,4,4A4,4,0,0,1,43,41Zm13-7H54.5a.5.5,0,0,1,0-1H56Zm-1.066-7H45V23h6.77ZM7,23h7v4H7ZM7,33H8v1H7Zm0,6V36H9a1,1,0,0,0,1-1V32a1,1,0,0,0-1-1H7V29h8a1,1,0,0,0,1-1V22a1,1,0,0,0-1-1H7.78A2.985,2.985,0,0,1,10,20H48.912a.992.992,0,0,1,.784.379l.492.621H44a1,1,0,0,0-1,1v6a1,1,0,0,0,1,1H56v2H54.5a2.5,2.5,0,0,0,0,5H56v3a1,1,0,0,1-1,1H52.91a5.993,5.993,0,0,0-11.82,0H20.91A5.993,5.993,0,0,0,9.09,40H8A1,1,0,0,1,7,39Zm4,2a4,4,0,1,1,4,4A4,4,0,0,1,11,41Z"/><path d="M62,45H61a1,1,0,0,0,0,2h1a1,1,0,0,0,0-2Z"/><path d="M13,33H36a1,1,0,0,0,0-2H13a1,1,0,0,0,0,2Z"/><path d="M41,31H39a1,1,0,0,0,0,2h2a1,1,0,0,0,0-2Z"/><path d="M30,34H21a1,1,0,0,0,0,2h9a1,1,0,0,0,0-2Z"/></g></svg>
